<svg width="184" height="275" viewBox="0 0 184 275" style=" background-color:#fff" xmlns="http://www.w3.org/2000/svg">
    <rect x="159.087" y="-114.202" width="1.13147" height="502.938" transform="rotate(30 159.087 -114.202)"
        fill="#8BBC9E" />
    <rect x="146.349" y="-121.556" width="2.26294" height="502.938" transform="rotate(30 146.349 -121.556)"
        fill="#8BBC9E" />
    <rect x="142.919" y="-123.536" width="1.6972" height="502.938" transform="rotate(30 142.919 -123.536)"
        fill="#8BBC9E" />
    <rect x="139.49" y="-125.516" width="1.13147" height="502.938" transform="rotate(30 139.49 -125.516)"
        fill="#8BBC9E" />
    <rect x="136.06" y="-127.497" width="0.565734" height="502.938" transform="rotate(30 136.06 -127.497)"
        fill="#8BBC9E" />
    <rect width="2.26294" height="502.938" transform="matrix(-0.866025 -0.5 -0.5 0.866025 171.825 -106.847)"
        fill="#8BBC9E" />
    <rect width="1.6972" height="502.938" transform="matrix(-0.866025 -0.5 -0.5 0.866025 175.255 -104.867)"
        fill="#8BBC9E" />
    <rect width="1.13147" height="502.938" transform="matrix(-0.866025 -0.5 -0.5 0.866025 178.685 -102.887)"
        fill="#8BBC9E" />
    <rect width="0.565734" height="502.938" transform="matrix(-0.866025 -0.5 -0.5 0.866025 182.115 -100.907)"
        fill="#8BBC9E" />
    <rect width="0.565734" height="502.938" transform="matrix(-0.866025 -0.5 -0.5 0.866025 186.034 -98.6443)"
        fill="#8BBC9E" />
    <rect width="0.565734" height="502.938" transform="matrix(-0.866025 -0.5 -0.5 0.866025 132.63 -129.477)"
        fill="#8BBC9E" />
    <rect x="156.638" y="-115.616" width="0.565734" height="502.938" transform="rotate(30 156.638 -115.616)"
        fill="#8BBC9E" />
    <rect x="162.027" y="-112.505" width="0.565734" height="502.938" transform="rotate(30 162.027 -112.505)"
        fill="#8BBC9E" />
    <rect x="95.3953" y="-150.975" width="1.13147" height="502.938" transform="rotate(30 95.3953 -150.975)"
        fill="#8BBC9E" />
    <rect x="82.6567" y="-158.329" width="2.26294" height="502.938" transform="rotate(30 82.6567 -158.329)"
        fill="#8BBC9E" />
    <rect x="79.2273" y="-160.309" width="1.6972" height="502.938" transform="rotate(30 79.2273 -160.309)"
        fill="#8BBC9E" />
    <rect x="75.7976" y="-162.289" width="1.13147" height="502.938" transform="rotate(30 75.7976 -162.289)"
        fill="#8BBC9E" />
    <rect x="72.3682" y="-164.27" width="0.565734" height="502.938" transform="rotate(30 72.3682 -164.27)"
        fill="#8BBC9E" />
    <rect width="2.26294" height="502.938" transform="matrix(-0.866025 -0.5 -0.5 0.866025 108.134 -143.621)"
        fill="#8BBC9E" />
    <rect width="1.6972" height="502.938" transform="matrix(-0.866025 -0.5 -0.5 0.866025 111.563 -141.641)"
        fill="#8BBC9E" />
    <rect width="1.13147" height="502.938" transform="matrix(-0.866025 -0.5 -0.5 0.866025 114.993 -139.661)"
        fill="#8BBC9E" />
    <rect width="0.565734" height="502.938" transform="matrix(-0.866025 -0.5 -0.5 0.866025 118.422 -137.68)"
        fill="#8BBC9E" />
    <rect width="0.565734" height="502.938" transform="matrix(-0.866025 -0.5 -0.5 0.866025 122.342 -135.418)"
        fill="#8BBC9E" />
    <rect width="0.565734" height="502.938" transform="matrix(-0.866025 -0.5 -0.5 0.866025 68.9385 -166.25)"
        fill="#8BBC9E" />
    <rect x="92.9456" y="-152.39" width="0.565734" height="502.938" transform="rotate(30 92.9456 -152.39)"
        fill="#8BBC9E" />
    <rect x="98.335" y="-149.278" width="0.565734" height="502.938" transform="rotate(30 98.335 -149.278)"
        fill="#8BBC9E" />
    <rect x="280.103" y="-44.3333" width="1.13147" height="502.938" transform="rotate(30 280.103 -44.3333)"
        fill="#8BBC9E" />
    <rect x="267.364" y="-51.6877" width="2.26294" height="502.938" transform="rotate(30 267.364 -51.6877)"
        fill="#8BBC9E" />
    <rect x="263.935" y="-53.668" width="1.6972" height="502.938" transform="rotate(30 263.935 -53.668)"
        fill="#8BBC9E" />
    <rect x="260.505" y="-55.6475" width="1.13147" height="502.938" transform="rotate(30 260.505 -55.6475)"
        fill="#8BBC9E" />
    <rect x="257.075" y="-57.6277" width="0.565734" height="502.938" transform="rotate(30 257.075 -57.6277)"
        fill="#8BBC9E" />
    <rect width="2.26294" height="502.938" transform="matrix(-0.866025 -0.5 -0.5 0.866025 292.841 -36.9783)"
        fill="#8BBC9E" />
    <rect width="1.6972" height="502.938" transform="matrix(-0.866025 -0.5 -0.5 0.866025 296.271 -34.9988)"
        fill="#8BBC9E" />
    <rect width="1.13147" height="502.938" transform="matrix(-0.866025 -0.5 -0.5 0.866025 299.7 -33.0186)"
        fill="#8BBC9E" />
    <rect width="0.565734" height="502.938" transform="matrix(-0.866025 -0.5 -0.5 0.866025 303.13 -31.0381)"
        fill="#8BBC9E" />
    <rect width="0.565734" height="502.938" transform="matrix(-0.866025 -0.5 -0.5 0.866025 307.049 -28.7756)"
        fill="#8BBC9E" />
    <rect width="0.565734" height="502.938" transform="matrix(-0.866025 -0.5 -0.5 0.866025 253.646 -59.6079)"
        fill="#8BBC9E" />
    <rect x="277.653" y="-45.7476" width="0.565734" height="502.938" transform="rotate(30 277.653 -45.7476)"
        fill="#8BBC9E" />
    <rect x="283.042" y="-42.636" width="0.565734" height="502.938" transform="rotate(30 283.042 -42.636)"
        fill="#8BBC9E" />
    <rect x="340.856" y="-9.2583" width="1.13147" height="502.938" transform="rotate(30 340.856 -9.2583)"
        fill="#8BBC9E" />
    <rect x="328.117" y="-16.6123" width="2.26294" height="502.938" transform="rotate(30 328.117 -16.6123)"
        fill="#8BBC9E" />
    <rect x="324.688" y="-18.5916" width="1.6972" height="502.938" transform="rotate(30 324.688 -18.5916)"
        fill="#8BBC9E" />
    <rect x="321.258" y="-20.5718" width="1.13147" height="502.938" transform="rotate(30 321.258 -20.5718)"
        fill="#8BBC9E" />
    <rect x="317.829" y="-22.5522" width="0.565734" height="502.938" transform="rotate(30 317.829 -22.5522)"
        fill="#8BBC9E" />
    <rect width="2.26294" height="502.938" transform="matrix(-0.866025 -0.5 -0.5 0.866025 353.594 -1.90332)"
        fill="#8BBC9E" />
    <rect width="1.6972" height="502.938" transform="matrix(-0.866025 -0.5 -0.5 0.866025 357.024 0.0761719)"
        fill="#8BBC9E" />
    <rect width="1.13147" height="502.938" transform="matrix(-0.866025 -0.5 -0.5 0.866025 360.453 2.05664)"
        fill="#8BBC9E" />
    <rect width="0.565734" height="502.938" transform="matrix(-0.866025 -0.5 -0.5 0.866025 363.883 4.03711)"
        fill="#8BBC9E" />
    <rect width="0.565734" height="502.938" transform="matrix(-0.866025 -0.5 -0.5 0.866025 367.802 6.30029)"
        fill="#8BBC9E" />
    <rect width="0.565734" height="502.938" transform="matrix(-0.866025 -0.5 -0.5 0.866025 314.399 -24.5327)"
        fill="#8BBC9E" />
    <rect x="338.406" y="-10.6724" width="0.565734" height="502.938" transform="rotate(30 338.406 -10.6724)"
        fill="#8BBC9E" />
    <rect x="343.795" y="-7.56104" width="0.565734" height="502.938" transform="rotate(30 343.795 -7.56104)"
        fill="#8BBC9E" />
    <rect x="219.84" y="-79.1267" width="1.13147" height="502.938" transform="rotate(30 219.84 -79.1267)"
        fill="#8BBC9E" />
    <rect x="207.102" y="-86.481" width="2.26294" height="502.938" transform="rotate(30 207.102 -86.481)"
        fill="#8BBC9E" />
    <rect x="203.672" y="-88.4612" width="1.6972" height="502.938" transform="rotate(30 203.672 -88.4612)"
        fill="#8BBC9E" />
    <rect x="200.243" y="-90.4407" width="1.13147" height="502.938" transform="rotate(30 200.243 -90.4407)"
        fill="#8BBC9E" />
    <rect x="196.813" y="-92.4209" width="0.565734" height="502.938" transform="rotate(30 196.813 -92.4209)"
        fill="#8BBC9E" />
    <rect width="2.26294" height="502.938" transform="matrix(-0.866025 -0.5 -0.5 0.866025 232.578 -71.7717)"
        fill="#8BBC9E" />
    <rect width="1.6972" height="502.938" transform="matrix(-0.866025 -0.5 -0.5 0.866025 236.008 -69.7922)"
        fill="#8BBC9E" />
    <rect width="1.13147" height="502.938" transform="matrix(-0.866025 -0.5 -0.5 0.866025 239.438 -67.812)"
        fill="#8BBC9E" />
    <rect width="0.565734" height="502.938" transform="matrix(-0.866025 -0.5 -0.5 0.866025 242.867 -65.8318)"
        fill="#8BBC9E" />
    <rect width="0.565734" height="502.938" transform="matrix(-0.866025 -0.5 -0.5 0.866025 246.787 -63.5693)"
        fill="#8BBC9E" />
    <rect width="0.565734" height="502.938" transform="matrix(-0.866025 -0.5 -0.5 0.866025 193.383 -94.4014)"
        fill="#8BBC9E" />
    <rect x="217.391" y="-80.541" width="0.565734" height="502.938" transform="rotate(30 217.391 -80.541)"
        fill="#8BBC9E" />
    <rect x="222.78" y="-77.4294" width="0.565734" height="502.938" transform="rotate(30 222.78 -77.4294)"
        fill="#8BBC9E" />
    <rect x="-163.984" y="-60.6492" width="1.13147" height="633.745" transform="rotate(-40.1358 -163.984 -60.6492)"
        fill="#B89994" />
    <rect x="-175.229" y="-51.1689" width="2.26294" height="633.745" transform="rotate(-40.1358 -175.229 -51.1689)"
        fill="#B89994" />
    <rect x="-178.257" y="-48.6165" width="1.6972" height="633.745" transform="rotate(-40.1358 -178.257 -48.6165)"
        fill="#B89994" />
    <rect x="-181.284" y="-46.0632" width="1.13147" height="633.745" transform="rotate(-40.1358 -181.284 -46.0632)"
        fill="#B89994" />
    <rect x="-184.312" y="-43.5107" width="0.565734" height="633.745" transform="rotate(-40.1358 -184.312 -43.5107)"
        fill="#B89994" />
    <rect width="2.26294" height="633.745" transform="matrix(-0.764519 0.644601 0.644601 0.764519 -152.738 -70.1313)"
        fill="#B89994" />
    <rect width="1.6972" height="633.745" transform="matrix(-0.764519 0.644601 0.644601 0.764519 -149.711 -72.6838)"
        fill="#B89994" />
    <rect width="1.13147" height="633.745" transform="matrix(-0.764519 0.644601 0.644601 0.764519 -146.683 -75.2363)"
        fill="#B89994" />
    <rect width="0.565734" height="633.745" transform="matrix(-0.764519 0.644601 0.644601 0.764519 -143.656 -77.7886)"
        fill="#B89994" />
    <rect width="0.565734" height="633.745" transform="matrix(-0.764519 0.644601 0.644601 0.764519 -140.195 -80.7065)"
        fill="#B89994" />
    <rect width="0.565734" height="633.745" transform="matrix(-0.764519 0.644601 0.644601 0.764519 -187.339 -40.9575)"
        fill="#B89994" />
    <rect x="-166.146" y="-58.8262" width="0.565734" height="633.745" transform="rotate(-40.1358 -166.146 -58.8262)"
        fill="#B89994" />
    <rect x="-161.389" y="-62.8372" width="0.565734" height="633.745" transform="rotate(-40.1358 -161.389 -62.8372)"
        fill="#B89994" />
    <rect x="-220.211" y="-13.2417" width="1.13147" height="633.745" transform="rotate(-40.1358 -220.211 -13.2417)"
        fill="#B89994" />
    <rect x="-231.456" y="-3.76123" width="2.26294" height="633.745" transform="rotate(-40.1358 -231.456 -3.76123)"
        fill="#B89994" />
    <rect x="-234.484" y="-1.20898" width="1.6972" height="633.745" transform="rotate(-40.1358 -234.484 -1.20898)"
        fill="#B89994" />
    <rect x="-237.511" y="1.34424" width="1.13147" height="633.745" transform="rotate(-40.1358 -237.511 1.34424)"
        fill="#B89994" />
    <rect x="-240.539" y="3.89648" width="0.565734" height="633.745" transform="rotate(-40.1358 -240.539 3.89648)"
        fill="#B89994" />
    <rect width="2.26294" height="633.745" transform="matrix(-0.764519 0.644601 0.644601 0.764519 -208.965 -22.7239)"
        fill="#B89994" />
    <rect width="1.6972" height="633.745" transform="matrix(-0.764519 0.644601 0.644601 0.764519 -205.938 -25.2761)"
        fill="#B89994" />
    <rect width="1.13147" height="633.745" transform="matrix(-0.764519 0.644601 0.644601 0.764519 -202.91 -27.8286)"
        fill="#B89994" />
    <rect width="0.565734" height="633.745" transform="matrix(-0.764519 0.644601 0.644601 0.764519 -199.883 -30.3811)"
        fill="#B89994" />
    <rect width="0.565734" height="633.745" transform="matrix(-0.764519 0.644601 0.644601 0.764519 -196.422 -33.2988)"
        fill="#B89994" />
    <rect width="0.565734" height="633.745" transform="matrix(-0.764519 0.644601 0.644601 0.764519 -243.566 6.45117)"
        fill="#B89994" />
    <rect x="-222.373" y="-11.4185" width="0.565734" height="633.745" transform="rotate(-40.1358 -222.373 -11.4185)"
        fill="#B89994" />
    <rect x="-217.616" y="-15.4292" width="0.565734" height="633.745" transform="rotate(-40.1358 -217.616 -15.4292)"
        fill="#B89994" />
    <rect x="-57.1526" y="-150.723" width="1.13147" height="633.745" transform="rotate(-40.1358 -57.1526 -150.723)"
        fill="#B89994" />
    <rect x="-68.3979" y="-141.242" width="2.26294" height="633.745" transform="rotate(-40.1358 -68.3979 -141.242)"
        fill="#B89994" />
    <rect x="-71.4255" y="-138.69" width="1.6972" height="633.745" transform="rotate(-40.1358 -71.4255 -138.69)"
        fill="#B89994" />
    <rect x="-74.4531" y="-136.137" width="1.13147" height="633.745" transform="rotate(-40.1358 -74.4531 -136.137)"
        fill="#B89994" />
    <rect x="-77.4807" y="-133.584" width="0.565734" height="633.745" transform="rotate(-40.1358 -77.4807 -133.584)"
        fill="#B89994" />
    <rect width="2.26294" height="633.745" transform="matrix(-0.764519 0.644601 0.644601 0.764519 -45.907 -160.206)"
        fill="#B89994" />
    <rect width="1.6972" height="633.745" transform="matrix(-0.764519 0.644601 0.644601 0.764519 -42.8796 -162.758)"
        fill="#B89994" />
    <rect width="1.13147" height="633.745" transform="matrix(-0.764519 0.644601 0.644601 0.764519 -39.8518 -165.311)"
        fill="#B89994" />
    <rect width="0.565734" height="633.745" transform="matrix(-0.764519 0.644601 0.644601 0.764519 -36.8245 -167.864)"
        fill="#B89994" />
    <rect width="0.565734" height="633.745" transform="matrix(-0.764519 0.644601 0.644601 0.764519 -33.364 -170.781)"
        fill="#B89994" />
    <rect width="0.565734" height="633.745" transform="matrix(-0.764519 0.644601 0.644601 0.764519 -80.5081 -131.031)"
        fill="#B89994" />
    <rect x="-59.3149" y="-148.9" width="0.565734" height="633.745" transform="rotate(-40.1358 -59.3149 -148.9)"
        fill="#B89994" />
    <rect x="-54.5576" y="-152.911" width="0.565734" height="633.745" transform="rotate(-40.1358 -54.5576 -152.911)"
        fill="#B89994" />
    <rect x="-3.52075" y="-195.942" width="1.13147" height="633.745" transform="rotate(-40.1358 -3.52075 -195.942)"
        fill="#B89994" />
    <rect x="-14.7661" y="-186.461" width="2.26294" height="633.745" transform="rotate(-40.1358 -14.7661 -186.461)"
        fill="#B89994" />
    <rect x="-17.7939" y="-183.907" width="1.6972" height="633.745" transform="rotate(-40.1358 -17.7939 -183.907)"
        fill="#B89994" />
    <rect x="-20.8213" y="-181.355" width="1.13147" height="633.745" transform="rotate(-40.1358 -20.8213 -181.355)"
        fill="#B89994" />
    <rect x="-23.8489" y="-178.803" width="0.565734" height="633.745" transform="rotate(-40.1358 -23.8489 -178.803)"
        fill="#B89994" />
    <rect width="2.26294" height="633.745" transform="matrix(-0.764519 0.644601 0.644601 0.764519 7.72461 -205.424)"
        fill="#B89994" />
    <rect width="1.6972" height="633.745" transform="matrix(-0.764519 0.644601 0.644601 0.764519 10.7522 -207.976)"
        fill="#B89994" />
    <rect width="1.13147" height="633.745" transform="matrix(-0.764519 0.644601 0.644601 0.764519 13.7798 -210.53)"
        fill="#B89994" />
    <rect width="0.565734" height="633.745" transform="matrix(-0.764519 0.644601 0.644601 0.764519 16.8074 -213.082)"
        fill="#B89994" />
    <rect width="0.565734" height="633.745" transform="matrix(-0.764519 0.644601 0.644601 0.764519 20.2676 -215.999)"
        fill="#B89994" />
    <rect width="0.565734" height="633.745" transform="matrix(-0.764519 0.644601 0.644601 0.764519 -26.8765 -176.25)"
        fill="#B89994" />
    <rect x="-5.68311" y="-194.119" width="0.565734" height="633.745" transform="rotate(-40.1358 -5.68311 -194.119)"
        fill="#B89994" />
    <rect x="-0.925781" y="-198.13" width="0.565734" height="633.745" transform="rotate(-40.1358 -0.925781 -198.13)"
        fill="#B89994" />
    <rect x="-110.352" y="-105.869" width="1.13147" height="633.745" transform="rotate(-40.1358 -110.352 -105.869)"
        fill="#B89994" />
    <rect x="-121.597" y="-96.387" width="2.26294" height="633.745" transform="rotate(-40.1358 -121.597 -96.387)"
        fill="#B89994" />
    <rect x="-124.625" y="-93.8335" width="1.6972" height="633.745" transform="rotate(-40.1358 -124.625 -93.8335)"
        fill="#B89994" />
    <rect x="-127.652" y="-91.2812" width="1.13147" height="633.745" transform="rotate(-40.1358 -127.652 -91.2812)"
        fill="#B89994" />
    <rect x="-130.68" y="-88.7288" width="0.565734" height="633.745" transform="rotate(-40.1358 -130.68 -88.7288)"
        fill="#B89994" />
    <rect width="2.26294" height="633.745" transform="matrix(-0.764519 0.644601 0.644601 0.764519 -99.106 -115.351)"
        fill="#B89994" />
    <rect width="1.6972" height="633.745" transform="matrix(-0.764519 0.644601 0.644601 0.764519 -96.0786 -117.903)"
        fill="#B89994" />
    <rect width="1.13147" height="633.745" transform="matrix(-0.764519 0.644601 0.644601 0.764519 -93.051 -120.456)"
        fill="#B89994" />
    <rect width="0.565734" height="633.745" transform="matrix(-0.764519 0.644601 0.644601 0.764519 -90.0234 -123.009)"
        fill="#B89994" />
    <rect width="0.565734" height="633.745" transform="matrix(-0.764519 0.644601 0.644601 0.764519 -86.5632 -125.926)"
        fill="#B89994" />
    <rect width="0.565734" height="633.745" transform="matrix(-0.764519 0.644601 0.644601 0.764519 -133.707 -86.1765)"
        fill="#B89994" />
    <rect x="-112.514" y="-104.045" width="0.565734" height="633.745" transform="rotate(-40.1358 -112.514 -104.045)"
        fill="#B89994" />
    <rect x="-107.756" y="-108.057" width="0.565734" height="633.745" transform="rotate(-40.1358 -107.756 -108.057)"
        fill="#B89994" />
</svg>